<svg width="203" height="44" viewBox="0 0 203 44" fill="none" xmlns="http://www.w3.org/2000/svg">
<rect x="0.5" y="0.5" width="202" height="43" fill="#333333"/>
<path d="M36.0254 17.0059V25.9609H37.2559V29.6113H36.1416V27H29.1963V29.6113H28.082V25.9609H28.8477C29.1895 25.3776 29.5085 24.7236 29.8047 23.999C30.1055 23.2699 30.3721 22.5088 30.6045 21.7158C30.8415 20.9183 31.0329 20.1185 31.1787 19.3164C31.3291 18.5143 31.4248 17.7441 31.4658 17.0059H36.0254ZM34.8701 18.0518H32.4912C32.4502 18.6169 32.359 19.248 32.2178 19.9453C32.0765 20.638 31.8942 21.349 31.6709 22.0781C31.4521 22.8073 31.2061 23.5068 30.9326 24.1768C30.6637 24.8467 30.3789 25.4414 30.0781 25.9609H34.8701V18.0518ZM45.8002 23.2402C45.8002 23.8555 45.7205 24.4046 45.561 24.8877C45.4015 25.3708 45.1713 25.7786 44.8705 26.1113C44.5698 26.444 44.2052 26.6992 43.7768 26.877C43.353 27.0501 42.8722 27.1367 42.3344 27.1367C41.8331 27.1367 41.3728 27.0501 40.9536 26.877C40.5388 26.6992 40.1788 26.444 39.8735 26.1113C39.5727 25.7786 39.338 25.3708 39.1694 24.8877C39.0053 24.4046 38.9233 23.8555 38.9233 23.2402C38.9233 22.4199 39.0623 21.7227 39.3403 21.1484C39.6183 20.5697 40.0148 20.1299 40.5297 19.8291C41.0493 19.5238 41.6668 19.3711 42.3823 19.3711C43.0659 19.3711 43.6629 19.5238 44.1733 19.8291C44.6883 20.1344 45.087 20.5765 45.3696 21.1553C45.6567 21.7295 45.8002 22.4245 45.8002 23.2402ZM40.0991 23.2402C40.0991 23.8418 40.1788 24.3636 40.3383 24.8057C40.4978 25.2477 40.7439 25.5895 41.0766 25.8311C41.4093 26.0726 41.8377 26.1934 42.3618 26.1934C42.8813 26.1934 43.3074 26.0726 43.6401 25.8311C43.9773 25.5895 44.2257 25.2477 44.3852 24.8057C44.5447 24.3636 44.6245 23.8418 44.6245 23.2402C44.6245 22.6432 44.5447 22.1283 44.3852 21.6953C44.2257 21.2578 43.9796 20.9206 43.6469 20.6836C43.3142 20.4466 42.8836 20.3281 42.3549 20.3281C41.5756 20.3281 41.0037 20.5856 40.6391 21.1006C40.2791 21.6156 40.0991 22.3288 40.0991 23.2402ZM47.9325 22.502C47.9325 21.4355 48.035 20.5264 48.2401 19.7744C48.4452 19.0179 48.7619 18.4118 49.1903 17.9561C49.6233 17.4958 50.1792 17.1813 50.8583 17.0127C51.4416 16.8532 52.0341 16.7165 52.6356 16.6025C53.2372 16.484 53.8228 16.3815 54.3925 16.2949L54.5907 17.293C54.3036 17.334 54.0028 17.3818 53.6884 17.4365C53.3739 17.4867 53.0595 17.5413 52.745 17.6006C52.4305 17.6553 52.1343 17.7145 51.8563 17.7783C51.5783 17.8376 51.3322 17.8991 51.118 17.9629C50.7307 18.0677 50.3957 18.25 50.1132 18.5098C49.8352 18.7695 49.6141 19.1273 49.4501 19.583C49.2906 20.0387 49.1949 20.613 49.163 21.3057H49.245C49.3817 21.1051 49.5686 20.9069 49.8055 20.7109C50.0425 20.515 50.3251 20.3532 50.6532 20.2256C50.9813 20.0934 51.3505 20.0273 51.7606 20.0273C52.4078 20.0273 52.9478 20.1686 53.3807 20.4512C53.8137 20.7292 54.1395 21.1211 54.3583 21.627C54.577 22.1328 54.6864 22.7253 54.6864 23.4043C54.6864 24.2201 54.5451 24.9059 54.2626 25.4619C53.9846 26.0179 53.5927 26.4372 53.0868 26.7197C52.5809 26.9977 51.9862 27.1367 51.3026 27.1367C50.774 27.1367 50.3 27.0342 49.8807 26.8291C49.466 26.624 49.1128 26.3232 48.8212 25.9268C48.5341 25.5303 48.313 25.0449 48.1581 24.4707C48.0077 23.8965 47.9325 23.2402 47.9325 22.502ZM51.3915 26.1934C51.8244 26.1934 52.1958 26.1022 52.5057 25.9199C52.8202 25.7376 53.0617 25.4505 53.2304 25.0586C53.4035 24.6621 53.4901 24.1471 53.4901 23.5137C53.4901 22.7207 53.3374 22.1009 53.0321 21.6543C52.7313 21.2031 52.2483 20.9775 51.5829 20.9775C51.1682 20.9775 50.7922 21.0664 50.455 21.2441C50.1177 21.4173 49.8329 21.6247 49.6005 21.8662C49.368 22.1077 49.1994 22.3242 49.0946 22.5156C49.0946 22.9805 49.1288 23.4316 49.1971 23.8691C49.2655 24.3066 49.384 24.7008 49.5526 25.0518C49.7212 25.4027 49.9537 25.6807 50.2499 25.8857C50.5507 26.0908 50.9312 26.1934 51.3915 26.1934ZM60.0111 19.3848C60.9043 19.3848 61.5674 19.5853 62.0003 19.9863C62.4333 20.3874 62.6497 21.0277 62.6497 21.9072V27H61.8226L61.6038 25.8926H61.5491C61.3395 26.166 61.1208 26.3962 60.8929 26.583C60.665 26.7653 60.4007 26.9043 60.0999 27C59.8037 27.0911 59.4391 27.1367 59.0062 27.1367C58.5504 27.1367 58.1448 27.057 57.7894 26.8975C57.4385 26.738 57.1605 26.4964 56.9554 26.1729C56.7549 25.8493 56.6546 25.4391 56.6546 24.9424C56.6546 24.195 56.9508 23.6208 57.5433 23.2197C58.1357 22.8187 59.0381 22.5999 60.2503 22.5635L61.5423 22.5088V22.0508C61.5423 21.4036 61.4033 20.9502 61.1253 20.6904C60.8473 20.4307 60.4554 20.3008 59.9495 20.3008C59.5576 20.3008 59.1839 20.3577 58.8284 20.4717C58.473 20.5856 58.1357 20.7201 57.8167 20.875L57.4681 20.0137C57.8053 19.8405 58.1927 19.6924 58.6302 19.5693C59.0677 19.4463 59.528 19.3848 60.0111 19.3848ZM61.5286 23.3086L60.387 23.3564C59.4528 23.3929 58.7943 23.5456 58.4114 23.8145C58.0286 24.0833 57.8372 24.4639 57.8372 24.9561C57.8372 25.3844 57.9671 25.7012 58.2269 25.9062C58.4866 26.1113 58.8307 26.2139 59.2591 26.2139C59.9245 26.2139 60.4691 26.0293 60.8929 25.6602C61.3167 25.291 61.5286 24.7373 61.5286 23.999V23.3086ZM71.5017 21.3877C71.5017 21.8571 71.365 22.224 71.0916 22.4883C70.8181 22.748 70.4649 22.9235 70.032 23.0146V23.0693C70.5014 23.1331 70.9047 23.3018 71.242 23.5752C71.5838 23.8441 71.7547 24.2565 71.7547 24.8125C71.7547 25.2409 71.6521 25.6191 71.447 25.9473C71.242 26.2754 70.9207 26.5329 70.4832 26.7197C70.0457 26.9066 69.476 27 68.7742 27H65.5476V19.5078H68.7468C69.2846 19.5078 69.7586 19.5693 70.1687 19.6924C70.5834 19.8109 70.9093 20.0068 71.1463 20.2803C71.3832 20.5537 71.5017 20.9229 71.5017 21.3877ZM70.572 24.8125C70.572 24.3704 70.4034 24.0514 70.0662 23.8555C69.7335 23.6595 69.2481 23.5615 68.6101 23.5615H66.6892V26.0771H68.6375C69.2664 26.0771 69.7449 25.9814 70.073 25.79C70.4057 25.5941 70.572 25.2682 70.572 24.8125ZM70.3464 21.5176C70.3464 21.1621 70.2166 20.8978 69.9568 20.7246C69.697 20.5469 69.2709 20.458 68.6785 20.458H66.6892V22.6113H68.4802C69.0955 22.6113 69.5603 22.5225 69.8748 22.3447C70.1892 22.167 70.3464 21.8913 70.3464 21.5176ZM75.2268 19.5078V24.2178C75.2268 24.3089 75.2245 24.4274 75.2199 24.5732C75.2154 24.7145 75.2085 24.8672 75.1994 25.0312C75.1903 25.1908 75.1812 25.3457 75.1721 25.4961C75.1675 25.6419 75.1607 25.7627 75.1516 25.8584L79.2395 19.5078H80.634V27H79.5744V22.4062C79.5744 22.2604 79.5767 22.0736 79.5812 21.8457C79.5858 21.6178 79.5926 21.3945 79.6018 21.1758C79.6109 20.9525 79.6177 20.7793 79.6223 20.6562L75.548 27H74.1467V19.5078H75.2268ZM88.7135 20.4717H86.2457V27H85.1246V20.4717H82.6911V19.5078H88.7135V20.4717ZM91.8985 22.5977H94.1954C94.8334 22.5977 95.3643 22.6774 95.7882 22.8369C96.212 22.9964 96.5287 23.2334 96.7384 23.5479C96.9526 23.8623 97.0596 24.252 97.0596 24.7168C97.0596 25.1816 96.9548 25.585 96.7452 25.9268C96.5401 26.2686 96.2211 26.5329 95.7882 26.7197C95.3598 26.9066 94.8061 27 94.127 27H90.7569V19.5078H91.8985V22.5977ZM95.918 24.7715C95.918 24.3112 95.754 23.9922 95.4259 23.8145C95.1023 23.6322 94.6488 23.541 94.0655 23.541H91.8985V26.0771H94.0723C94.6192 26.0771 95.0636 25.9769 95.4053 25.7764C95.7471 25.5713 95.918 25.2363 95.918 24.7715ZM109.726 21.3877C109.726 21.8571 109.589 22.224 109.315 22.4883C109.042 22.748 108.689 22.9235 108.256 23.0146V23.0693C108.725 23.1331 109.129 23.3018 109.466 23.5752C109.808 23.8441 109.978 24.2565 109.978 24.8125C109.978 25.2409 109.876 25.6191 109.671 25.9473C109.466 26.2754 109.144 26.5329 108.707 26.7197C108.269 26.9066 107.7 27 106.998 27H103.771V19.5078H106.971C107.508 19.5078 107.982 19.5693 108.393 19.6924C108.807 19.8109 109.133 20.0068 109.37 20.2803C109.607 20.5537 109.726 20.9229 109.726 21.3877ZM108.796 24.8125C108.796 24.3704 108.627 24.0514 108.29 23.8555C107.957 23.6595 107.472 23.5615 106.834 23.5615H104.913V26.0771H106.861C107.49 26.0771 107.969 25.9814 108.297 25.79C108.63 25.5941 108.796 25.2682 108.796 24.8125ZM108.57 21.5176C108.57 21.1621 108.44 20.8978 108.181 20.7246C107.921 20.5469 107.495 20.458 106.902 20.458H104.913V22.6113H106.704C107.319 22.6113 107.784 22.5225 108.099 22.3447C108.413 22.167 108.57 21.8913 108.57 21.5176ZM120.935 19.5078H122.186L118.953 23.124L122.446 27H121.113L117.709 23.1992V27H116.567V19.5078H117.709V23.1445L120.935 19.5078ZM130.82 23.2402C130.82 23.8555 130.74 24.4046 130.58 24.8877C130.421 25.3708 130.191 25.7786 129.89 26.1113C129.589 26.444 129.225 26.6992 128.796 26.877C128.372 27.0501 127.892 27.1367 127.354 27.1367C126.852 27.1367 126.392 27.0501 125.973 26.877C125.558 26.6992 125.198 26.444 124.893 26.1113C124.592 25.7786 124.357 25.3708 124.189 24.8877C124.025 24.4046 123.943 23.8555 123.943 23.2402C123.943 22.4199 124.082 21.7227 124.36 21.1484C124.638 20.5697 125.034 20.1299 125.549 19.8291C126.069 19.5238 126.686 19.3711 127.402 19.3711C128.085 19.3711 128.682 19.5238 129.193 19.8291C129.708 20.1344 130.106 20.5765 130.389 21.1553C130.676 21.7295 130.82 22.4245 130.82 23.2402ZM125.118 23.2402C125.118 23.8418 125.198 24.3636 125.358 24.8057C125.517 25.2477 125.763 25.5895 126.096 25.8311C126.429 26.0726 126.857 26.1934 127.381 26.1934C127.901 26.1934 128.327 26.0726 128.659 25.8311C128.997 25.5895 129.245 25.2477 129.405 24.8057C129.564 24.3636 129.644 23.8418 129.644 23.2402C129.644 22.6432 129.564 22.1283 129.405 21.6953C129.245 21.2578 128.999 20.9206 128.666 20.6836C128.334 20.4466 127.903 20.3281 127.374 20.3281C126.595 20.3281 126.023 20.5856 125.658 21.1006C125.298 21.6156 125.118 22.3288 125.118 23.2402ZM136.862 19.3711C137.796 19.3711 138.541 19.6924 139.097 20.335C139.653 20.9775 139.931 21.9437 139.931 23.2334C139.931 24.0856 139.804 24.8011 139.549 25.3799C139.293 25.9587 138.933 26.3962 138.468 26.6924C138.008 26.9886 137.464 27.1367 136.835 27.1367C136.438 27.1367 136.09 27.0843 135.789 26.9795C135.488 26.8747 135.231 26.7334 135.016 26.5557C134.802 26.3779 134.624 26.1842 134.483 25.9746H134.401C134.415 26.1523 134.431 26.3665 134.449 26.6172C134.472 26.8678 134.483 27.0866 134.483 27.2734V30.3496H133.342V19.5078H134.278L134.428 20.6152H134.483C134.629 20.3874 134.807 20.18 135.016 19.9932C135.226 19.8018 135.481 19.6514 135.782 19.542C136.087 19.4281 136.447 19.3711 136.862 19.3711ZM136.664 20.3281C136.144 20.3281 135.725 20.4284 135.406 20.6289C135.092 20.8294 134.861 21.1302 134.716 21.5312C134.57 21.9277 134.492 22.4268 134.483 23.0283V23.2471C134.483 23.8805 134.551 24.416 134.688 24.8535C134.829 25.291 135.06 25.6237 135.379 25.8516C135.702 26.0794 136.135 26.1934 136.677 26.1934C137.142 26.1934 137.53 26.068 137.84 25.8174C138.149 25.5667 138.38 25.2181 138.53 24.7715C138.685 24.3203 138.762 23.8031 138.762 23.2197C138.762 22.3356 138.589 21.6338 138.243 21.1143C137.901 20.5902 137.375 20.3281 136.664 20.3281ZM144.402 19.3711C144.962 19.3711 145.447 19.4486 145.858 19.6035C146.268 19.7539 146.584 19.9749 146.808 20.2666C147.031 20.5583 147.143 20.9137 147.143 21.333C147.143 21.7842 147.02 22.1442 146.774 22.4131C146.527 22.682 146.188 22.8757 145.755 22.9941V23.0488C146.06 23.1309 146.336 23.2493 146.582 23.4043C146.833 23.5547 147.031 23.7552 147.177 24.0059C147.327 24.252 147.402 24.5596 147.402 24.9287C147.402 25.348 147.289 25.7262 147.061 26.0635C146.833 26.3962 146.486 26.6582 146.022 26.8496C145.557 27.041 144.969 27.1367 144.258 27.1367C143.907 27.1367 143.574 27.1162 143.26 27.0752C142.945 27.0387 142.661 26.984 142.405 26.9111C142.15 26.8382 141.927 26.7516 141.736 26.6514V25.6191C142.055 25.7741 142.428 25.9108 142.857 26.0293C143.285 26.1478 143.748 26.207 144.244 26.207C144.627 26.207 144.971 26.1637 145.277 26.0771C145.582 25.986 145.823 25.8424 146.001 25.6465C146.183 25.446 146.275 25.1839 146.275 24.8604C146.275 24.5641 146.195 24.3203 146.035 24.1289C145.876 23.9329 145.637 23.7894 145.318 23.6982C145.003 23.6025 144.604 23.5547 144.121 23.5547H143.116V22.625H143.944C144.586 22.625 145.099 22.5339 145.482 22.3516C145.864 22.1693 146.056 21.8617 146.056 21.4287C146.056 21.055 145.908 20.777 145.611 20.5947C145.315 20.4079 144.891 20.3145 144.34 20.3145C143.93 20.3145 143.568 20.3577 143.253 20.4443C142.939 20.5264 142.599 20.6449 142.235 20.7998L141.831 19.8906C142.223 19.7174 142.633 19.5876 143.062 19.501C143.49 19.4144 143.937 19.3711 144.402 19.3711ZM150.881 19.5078V24.2178C150.881 24.3089 150.879 24.4274 150.875 24.5732C150.87 24.7145 150.863 24.8672 150.854 25.0312C150.845 25.1908 150.836 25.3457 150.827 25.4961C150.822 25.6419 150.815 25.7627 150.806 25.8584L154.894 19.5078H156.289V27H155.229V22.4062C155.229 22.2604 155.231 22.0736 155.236 21.8457C155.24 21.6178 155.247 21.3945 155.256 21.1758C155.266 20.9525 155.272 20.7793 155.277 20.6562L151.203 27H149.801V19.5078H150.881ZM160.403 19.5078V22.6523H164.58V19.5078H165.715V27H164.58V23.6162H160.403V27H159.262V19.5078H160.403ZM167.499 19.5078H168.715L170.37 23.8555C170.465 24.1107 170.554 24.3568 170.636 24.5938C170.718 24.8262 170.791 25.0495 170.855 25.2637C170.919 25.4779 170.969 25.6852 171.005 25.8857H171.053C171.117 25.6579 171.208 25.3594 171.327 24.9902C171.445 24.6165 171.573 24.236 171.709 23.8486L173.275 19.5078H174.499L171.238 28.1006C171.065 28.5609 170.862 28.9619 170.629 29.3037C170.402 29.6455 170.124 29.9076 169.795 30.0898C169.467 30.2767 169.071 30.3701 168.606 30.3701C168.392 30.3701 168.203 30.3564 168.039 30.3291C167.874 30.3063 167.733 30.279 167.615 30.2471V29.3379C167.715 29.3607 167.836 29.3812 167.977 29.3994C168.123 29.4176 168.273 29.4268 168.428 29.4268C168.711 29.4268 168.955 29.3721 169.16 29.2627C169.369 29.1579 169.549 29.0029 169.7 28.7979C169.85 28.5928 169.98 28.349 170.089 28.0664L170.499 27.0137L167.499 19.5078Z" fill="white"/>
<rect x="0.5" y="0.5" width="202" height="43" stroke="#333333"/>
</svg>
