<svg width="135" height="44" viewBox="0 0 135 44" fill="none" xmlns="http://www.w3.org/2000/svg">
<rect x="0.5" y="0.5" width="134" height="43" fill="#333333"/>
<path d="M38.0352 21.9893C38.0352 22.7594 37.9372 23.4613 37.7412 24.0947C37.5452 24.7236 37.2536 25.266 36.8662 25.7217C36.4834 26.1729 36.0072 26.5215 35.4375 26.7676C34.8678 27.0137 34.207 27.1367 33.4551 27.1367C32.6803 27.1367 32.0036 27.0137 31.4248 26.7676C30.8506 26.5215 30.3721 26.1706 29.9893 25.7148C29.611 25.2591 29.3262 24.7145 29.1348 24.0811C28.9479 23.4476 28.8545 22.7458 28.8545 21.9756C28.8545 20.9548 29.0231 20.0592 29.3604 19.2891C29.6976 18.5189 30.208 17.9196 30.8916 17.4912C31.5798 17.0628 32.4411 16.8486 33.4756 16.8486C34.4645 16.8486 35.2962 17.0605 35.9707 17.4844C36.6497 17.9082 37.1624 18.5052 37.5088 19.2754C37.8597 20.041 38.0352 20.9456 38.0352 21.9893ZM30.0781 21.9893C30.0781 22.8369 30.1989 23.5706 30.4404 24.1904C30.682 24.8102 31.0511 25.2887 31.5479 25.626C32.0492 25.9632 32.6849 26.1318 33.4551 26.1318C34.2298 26.1318 34.8633 25.9632 35.3555 25.626C35.8522 25.2887 36.2191 24.8102 36.4561 24.1904C36.693 23.5706 36.8115 22.8369 36.8115 21.9893C36.8115 20.6995 36.5404 19.6924 35.998 18.9678C35.4603 18.2386 34.6195 17.874 33.4756 17.874C32.7008 17.874 32.0628 18.0404 31.5615 18.373C31.0602 18.7057 30.6865 19.1797 30.4404 19.7949C30.1989 20.4056 30.0781 21.137 30.0781 21.9893ZM45.7592 20.4717H43.2914V27H42.1704V20.4717H39.7368V19.5078H45.7592V20.4717ZM54.078 19.5078V27H52.9364V20.4854H48.9442V27H47.8026V19.5078H54.078ZM60.5648 19.3711C61.499 19.3711 62.2441 19.6924 62.8001 20.335C63.3561 20.9775 63.6341 21.9437 63.6341 23.2334C63.6341 24.0856 63.5065 24.8011 63.2513 25.3799C62.9961 25.9587 62.6361 26.3962 62.1712 26.6924C61.7109 26.9886 61.1663 27.1367 60.5374 27.1367C60.1409 27.1367 59.7923 27.0843 59.4915 26.9795C59.1907 26.8747 58.9333 26.7334 58.7191 26.5557C58.5049 26.3779 58.3271 26.1842 58.1859 25.9746H58.1038C58.1175 26.1523 58.1335 26.3665 58.1517 26.6172C58.1745 26.8678 58.1859 27.0866 58.1859 27.2734V30.3496H57.0443V19.5078H57.9808L58.1312 20.6152H58.1859C58.3317 20.3874 58.5094 20.18 58.7191 19.9932C58.9287 19.8018 59.1839 19.6514 59.4847 19.542C59.79 19.4281 60.1501 19.3711 60.5648 19.3711ZM60.3665 20.3281C59.847 20.3281 59.4277 20.4284 59.1087 20.6289C58.7943 20.8294 58.5641 21.1302 58.4183 21.5312C58.2724 21.9277 58.195 22.4268 58.1859 23.0283V23.2471C58.1859 23.8805 58.2542 24.416 58.3909 24.8535C58.5322 25.291 58.7624 25.6237 59.0814 25.8516C59.4049 26.0794 59.8379 26.1934 60.3802 26.1934C60.845 26.1934 61.2324 26.068 61.5423 25.8174C61.8522 25.5667 62.0823 25.2181 62.2327 24.7715C62.3877 24.3203 62.4652 23.8031 62.4652 23.2197C62.4652 22.3356 62.292 21.6338 61.9456 21.1143C61.6038 20.5902 61.0775 20.3281 60.3665 20.3281ZM68.9793 19.3848C69.8725 19.3848 70.5356 19.5853 70.9685 19.9863C71.4015 20.3874 71.6179 21.0277 71.6179 21.9072V27H70.7908L70.572 25.8926H70.5173C70.3077 26.166 70.089 26.3962 69.8611 26.583C69.6332 26.7653 69.3689 26.9043 69.0681 27C68.7719 27.0911 68.4073 27.1367 67.9744 27.1367C67.5186 27.1367 67.113 27.057 66.7576 26.8975C66.4067 26.738 66.1287 26.4964 65.9236 26.1729C65.7231 25.8493 65.6228 25.4391 65.6228 24.9424C65.6228 24.195 65.919 23.6208 66.5115 23.2197C67.1039 22.8187 68.0063 22.5999 69.2185 22.5635L70.5105 22.5088V22.0508C70.5105 21.4036 70.3715 20.9502 70.0935 20.6904C69.8155 20.4307 69.4236 20.3008 68.9177 20.3008C68.5258 20.3008 68.1521 20.3577 67.7966 20.4717C67.4412 20.5856 67.1039 20.7201 66.7849 20.875L66.4363 20.0137C66.7735 19.8405 67.1609 19.6924 67.5984 19.5693C68.0359 19.4463 68.4962 19.3848 68.9793 19.3848ZM70.4968 23.3086L69.3552 23.3564C68.421 23.3929 67.7625 23.5456 67.3797 23.8145C66.9968 24.0833 66.8054 24.4639 66.8054 24.9561C66.8054 25.3844 66.9353 25.7012 67.1951 25.9062C67.4548 26.1113 67.7989 26.2139 68.2273 26.2139C68.8927 26.2139 69.4373 26.0293 69.8611 25.6602C70.2849 25.291 70.4968 24.7373 70.4968 23.999V23.3086ZM80.4699 21.3877C80.4699 21.8571 80.3332 22.224 80.0598 22.4883C79.7863 22.748 79.4331 22.9235 79.0002 23.0146V23.0693C79.4696 23.1331 79.8729 23.3018 80.2102 23.5752C80.552 23.8441 80.7229 24.2565 80.7229 24.8125C80.7229 25.2409 80.6203 25.6191 80.4152 25.9473C80.2102 26.2754 79.8889 26.5329 79.4514 26.7197C79.0139 26.9066 78.4442 27 77.7424 27H74.5158V19.5078H77.715C78.2528 19.5078 78.7268 19.5693 79.1369 19.6924C79.5516 19.8109 79.8775 20.0068 80.1145 20.2803C80.3514 20.5537 80.4699 20.9229 80.4699 21.3877ZM79.5402 24.8125C79.5402 24.3704 79.3716 24.0514 79.0344 23.8555C78.7017 23.6595 78.2163 23.5615 77.5783 23.5615H75.6574V26.0771H77.6057C78.2346 26.0771 78.7131 25.9814 79.0412 25.79C79.3739 25.5941 79.5402 25.2682 79.5402 24.8125ZM79.3146 21.5176C79.3146 21.1621 79.1848 20.8978 78.925 20.7246C78.6652 20.5469 78.2391 20.458 77.6467 20.458H75.6574V22.6113H77.4484C78.0637 22.6113 78.5285 22.5225 78.843 22.3447C79.1574 22.167 79.3146 21.8913 79.3146 21.5176ZM84.195 19.5078V24.2178C84.195 24.3089 84.1927 24.4274 84.1881 24.5732C84.1836 24.7145 84.1767 24.8672 84.1676 25.0312C84.1585 25.1908 84.1494 25.3457 84.1403 25.4961C84.1357 25.6419 84.1289 25.7627 84.1198 25.8584L88.2077 19.5078H89.6022V27H88.5426V22.4062C88.5426 22.2604 88.5449 22.0736 88.5495 21.8457C88.554 21.6178 88.5608 21.3945 88.57 21.1758C88.5791 20.9525 88.5859 20.7793 88.5905 20.6562L84.5163 27H83.1149V19.5078H84.195ZM97.6817 20.4717H95.2139V27H94.0928V20.4717H91.6593V19.5078H97.6817V20.4717ZM100.867 22.5977H103.164C103.802 22.5977 104.333 22.6774 104.756 22.8369C105.18 22.9964 105.497 23.2334 105.707 23.5479C105.921 23.8623 106.028 24.252 106.028 24.7168C106.028 25.1816 105.923 25.585 105.713 25.9268C105.508 26.2686 105.189 26.5329 104.756 26.7197C104.328 26.9066 103.774 27 103.095 27H99.7251V19.5078H100.867V22.5977ZM104.886 24.7715C104.886 24.3112 104.722 23.9922 104.394 23.8145C104.07 23.6322 103.617 23.541 103.034 23.541H100.867V26.0771H103.041C103.587 26.0771 104.032 25.9769 104.374 25.7764C104.715 25.5713 104.886 25.2363 104.886 24.7715Z" fill="white"/>
<rect x="0.5" y="0.5" width="134" height="43" stroke="#333333"/>
</svg>
