<svg width="150" height="36" viewBox="0 0 150 36" fill="none" xmlns="http://www.w3.org/2000/svg">
<rect x="0.5" y="0.5" width="149" height="35" fill="white"/>
<path d="M29.3672 23V13.0059H36.8115V23H35.6631V14.0312H30.5293V23H29.3672ZM46.4155 19.2402C46.4155 19.8555 46.3357 20.4046 46.1762 20.8877C46.0167 21.3708 45.7866 21.7786 45.4858 22.1113C45.185 22.444 44.8204 22.6992 44.392 22.877C43.9682 23.0501 43.4874 23.1367 42.9496 23.1367C42.4483 23.1367 41.9881 23.0501 41.5688 22.877C41.1541 22.6992 40.794 22.444 40.4887 22.1113C40.1879 21.7786 39.9532 21.3708 39.7846 20.8877C39.6205 20.4046 39.5385 19.8555 39.5385 19.2402C39.5385 18.4199 39.6775 17.7227 39.9555 17.1484C40.2335 16.5697 40.63 16.1299 41.145 15.8291C41.6645 15.5238 42.282 15.3711 42.9975 15.3711C43.6811 15.3711 44.2781 15.5238 44.7885 15.8291C45.3035 16.1344 45.7023 16.5765 45.9848 17.1553C46.2719 17.7295 46.4155 18.4245 46.4155 19.2402ZM40.7143 19.2402C40.7143 19.8418 40.794 20.3636 40.9536 20.8057C41.1131 21.2477 41.3592 21.5895 41.6918 21.8311C42.0245 22.0726 42.4529 22.1934 42.977 22.1934C43.4965 22.1934 43.9226 22.0726 44.2553 21.8311C44.5926 21.5895 44.8409 21.2477 45.0004 20.8057C45.1599 20.3636 45.2397 19.8418 45.2397 19.2402C45.2397 18.6432 45.1599 18.1283 45.0004 17.6953C44.8409 17.2578 44.5948 16.9206 44.2621 16.6836C43.9295 16.4466 43.4988 16.3281 42.9702 16.3281C42.1909 16.3281 41.6189 16.5856 41.2543 17.1006C40.8943 17.6156 40.7143 18.3288 40.7143 19.2402ZM54.4266 15.5078V22.0361H55.4999V25.5908H54.3993V23H49.0946V25.5908H48.0077V22.0361H48.5956C49.024 21.4437 49.3794 20.7943 49.662 20.0879C49.9445 19.3815 50.1587 18.641 50.3046 17.8662C50.4504 17.0869 50.5279 16.3008 50.537 15.5078H54.4266ZM53.3261 16.4102H51.5487C51.5077 17.0755 51.4097 17.7523 51.2548 18.4404C51.1044 19.1286 50.9039 19.7848 50.6532 20.4092C50.4026 21.029 50.1109 21.5713 49.7782 22.0361H53.3261V16.4102ZM63.8255 15.5078V23H62.6839V16.4854H58.6917V23H57.5501V15.5078H63.8255ZM67.8718 15.5078V20.2178C67.8718 20.3089 67.8696 20.4274 67.865 20.5732C67.8604 20.7145 67.8536 20.8672 67.8445 21.0312C67.8354 21.1908 67.8263 21.3457 67.8172 21.4961C67.8126 21.6419 67.8058 21.7627 67.7966 21.8584L71.8845 15.5078H73.2791V23H72.2195V18.4062C72.2195 18.2604 72.2218 18.0736 72.2263 17.8457C72.2309 17.6178 72.2377 17.3945 72.2468 17.1758C72.256 16.9525 72.2628 16.7793 72.2673 16.6562L68.1931 23H66.7918V15.5078H67.8718ZM79.2531 23.1367C78.5786 23.1367 77.9839 22.9977 77.4689 22.7197C76.954 22.4417 76.5529 22.0179 76.2658 21.4482C75.9787 20.8786 75.8352 20.1608 75.8352 19.2949C75.8352 18.388 75.9855 17.6475 76.2863 17.0732C76.5917 16.4945 77.0109 16.0661 77.5441 15.7881C78.0773 15.5101 78.6835 15.3711 79.3625 15.3711C79.7362 15.3711 80.0962 15.4098 80.4426 15.4873C80.7935 15.5602 81.0806 15.6536 81.3039 15.7676L80.9621 16.7178C80.7342 16.6266 80.4699 16.5446 80.1691 16.4717C79.8729 16.3988 79.5949 16.3623 79.3352 16.3623C78.8156 16.3623 78.3827 16.474 78.0363 16.6973C77.6945 16.9206 77.437 17.2487 77.2639 17.6816C77.0952 18.1146 77.0109 18.6478 77.0109 19.2812C77.0109 19.8874 77.093 20.4046 77.257 20.833C77.4257 21.2614 77.674 21.5895 78.0021 21.8174C78.3348 22.0407 78.7495 22.1523 79.2463 22.1523C79.6428 22.1523 80.0005 22.1113 80.3195 22.0293C80.6385 21.9427 80.9279 21.8424 81.1877 21.7285V22.7402C80.937 22.8678 80.6568 22.9658 80.3469 23.0342C80.0415 23.1025 79.677 23.1367 79.2531 23.1367ZM86.3278 15.3848C87.221 15.3848 87.8841 15.5853 88.317 15.9863C88.75 16.3874 88.9664 17.0277 88.9664 17.9072V23H88.1393L87.9205 21.8926H87.8659C87.6562 22.166 87.4375 22.3962 87.2096 22.583C86.9817 22.7653 86.7174 22.9043 86.4166 23C86.1204 23.0911 85.7558 23.1367 85.3229 23.1367C84.8672 23.1367 84.4616 23.057 84.1061 22.8975C83.7552 22.738 83.4772 22.4964 83.2721 22.1729C83.0716 21.8493 82.9713 21.4391 82.9713 20.9424C82.9713 20.195 83.2676 19.6208 83.86 19.2197C84.4524 18.8187 85.3548 18.5999 86.567 18.5635L87.859 18.5088V18.0508C87.859 17.4036 87.72 16.9502 87.442 16.6904C87.164 16.4307 86.7721 16.3008 86.2663 16.3008C85.8743 16.3008 85.5006 16.3577 85.1452 16.4717C84.7897 16.5856 84.4524 16.7201 84.1334 16.875L83.7848 16.0137C84.122 15.8405 84.5094 15.6924 84.9469 15.5693C85.3844 15.4463 85.8447 15.3848 86.3278 15.3848ZM87.8454 19.3086L86.7038 19.3564C85.7695 19.3929 85.111 19.5456 84.7282 19.8145C84.3454 20.0833 84.1539 20.4639 84.1539 20.9561C84.1539 21.3844 84.2838 21.7012 84.5436 21.9062C84.8034 22.1113 85.1474 22.2139 85.5758 22.2139C86.2412 22.2139 86.7858 22.0293 87.2096 21.6602C87.6334 21.291 87.8454 20.7373 87.8454 19.999V19.3086ZM96.9708 16.4717H94.503V23H93.3819V16.4717H90.9483V15.5078H96.9708V16.4717ZM100.156 18.5977H102.453C103.091 18.5977 103.622 18.6774 104.045 18.8369C104.469 18.9964 104.786 19.2334 104.996 19.5479C105.21 19.8623 105.317 20.252 105.317 20.7168C105.317 21.1816 105.212 21.585 105.002 21.9268C104.797 22.2686 104.478 22.5329 104.045 22.7197C103.617 22.9066 103.063 23 102.384 23H99.0142V15.5078H100.156V18.5977ZM104.175 20.7715C104.175 20.3112 104.011 19.9922 103.683 19.8145C103.36 19.6322 102.906 19.541 102.323 19.541H100.156V22.0771H102.33C102.876 22.0771 103.321 21.9769 103.663 21.7764C104.004 21.5713 104.175 21.2363 104.175 20.7715ZM110.833 23.1367C110.158 23.1367 109.564 22.9977 109.049 22.7197C108.534 22.4417 108.133 22.0179 107.846 21.4482C107.559 20.8786 107.415 20.1608 107.415 19.2949C107.415 18.388 107.565 17.6475 107.866 17.0732C108.172 16.4945 108.591 16.0661 109.124 15.7881C109.657 15.5101 110.263 15.3711 110.942 15.3711C111.316 15.3711 111.676 15.4098 112.022 15.4873C112.373 15.5602 112.66 15.6536 112.884 15.7676L112.542 16.7178C112.314 16.6266 112.05 16.5446 111.749 16.4717C111.453 16.3988 111.175 16.3623 110.915 16.3623C110.395 16.3623 109.963 16.474 109.616 16.6973C109.274 16.9206 109.017 17.2487 108.844 17.6816C108.675 18.1146 108.591 18.6478 108.591 19.2812C108.591 19.8874 108.673 20.4046 108.837 20.833C109.005 21.2614 109.254 21.5895 109.582 21.8174C109.915 22.0407 110.329 22.1523 110.826 22.1523C111.223 22.1523 111.58 22.1113 111.899 22.0293C112.218 21.9427 112.508 21.8424 112.768 21.7285V22.7402C112.517 22.8678 112.237 22.9658 111.927 23.0342C111.621 23.1025 111.257 23.1367 110.833 23.1367ZM115.467 23H114.141L116.301 19.8418C115.987 19.7734 115.695 19.6572 115.426 19.4932C115.157 19.3245 114.939 19.0944 114.77 18.8027C114.606 18.5111 114.524 18.1488 114.524 17.7158C114.524 16.9958 114.763 16.4489 115.242 16.0752C115.725 15.6969 116.36 15.5078 117.149 15.5078H120.464V23H119.329V19.9922H117.429L115.467 23ZM115.624 17.7227C115.624 18.1693 115.784 18.502 116.103 18.7207C116.422 18.9349 116.878 19.042 117.47 19.042H119.329V16.458H117.272C116.689 16.458 116.267 16.5765 116.007 16.8135C115.752 17.0459 115.624 17.349 115.624 17.7227Z" fill="#333333"/>
<rect x="0.5" y="0.5" width="149" height="35" stroke="#333333"/>
</svg>
